<svg xmlns="http://www.w3.org/2000/svg" viewBox="0 0 480.559 600"><defs><style>.a{fill:#fff;fill-rule:evenodd;}</style></defs><path class="a" d="M111.67,34.4,141.7,49.068,171.74,64.435V124.5L141.7,139.173,111.67,154.54,81.635,139.173,51.6,124.5V64.435L81.635,49.068Z" transform="translate(308.819 205.879)"/><path class="a" d="M60.07,34.4,90.1,49.068,120.14,64.435V124.5L90.1,139.173,60.07,154.54,30.035,139.173,0,124.5V64.435L30.035,49.068Z" transform="translate(0 205.879)"/><path class="a" d="M84.844,263.067,103,272.148l30.035,15.367v60.07L103,362.252,72.97,377.619,42.935,362.252,12.9,347.584v-60.07l30.035-15.367,18.161-9.08V131.053l-18.161-9.08L12.9,107.3V47.235L42.935,31.868,72.97,17.2,103,31.868,133.04,47.235V107.3L103,121.973l-18.161,9.08Z" transform="translate(77.205 102.94)"/><path class="a" d="M110.644,263.067l18.161,9.08,30.035,15.367v60.07L128.8,362.252,98.77,377.619,68.735,362.252,38.7,347.584v-60.07l30.035-15.367,17.462-9.08V131.053l-17.462-9.08L38.7,107.3V47.235L68.735,31.868,98.77,17.2,128.8,31.868,158.84,47.235V107.3L128.8,121.973l-18.161,9.08Z" transform="translate(231.614 102.94)"/><path class="a" d="M97.744,113.853V245.867l18.161,9.08,30.035,15.367v60.07L115.9,345.052l-18.161,9.08V486.147l18.161,9.08,30.035,15.367v59.371L115.9,585.332,85.87,600,55.835,585.332,25.8,569.965V510.594l30.035-15.367L74,486.147V354.133l-18.161-9.08L25.8,330.384v-60.07l30.035-15.367L74,245.867V113.853l-18.161-9.08L25.8,90.1V30.035L55.835,14.668,85.87,0,115.9,14.668,145.94,30.035V90.1L115.9,104.773Z" transform="translate(154.41)"/></svg>