<svg xmlns="http://www.w3.org/2000/svg" viewBox="2322 1031 170.8 197.001">
  <defs>
    <style>
      .cls-1 {
        fill: #0f3763;
        fill-rule: evenodd;
      }

      .cls-2 {
        fill: #fff;
      }
    </style>
  </defs>
  <g id="Group_216" data-name="Group 216" transform="translate(2322 1031)">
    <path id="Path_190" data-name="Path 190" class="cls-1" d="M0,147.813v-98.5L85.4,0l85.4,49.312v98.5L85.4,197Z"/>
    <g id="Group_215" data-name="Group 215" transform="translate(28.425 42.638)">
      <path id="Path_191" data-name="Path 191" class="cls-2" d="M71.076,95.924a5.809,5.809,0,1,1-5.809-5.809,5.882,5.882,0,0,1,5.809,5.809Zm23.606-5.809a5.809,5.809,0,1,0,5.809,5.809,5.651,5.651,0,0,0-5.809-5.809Zm42.144,2.6v11.123a10.18,10.18,0,0,1-10.134,10.134H119.4c-7.292,20.145-25.83,32.257-39.425,32.257s-32.257-12.112-39.549-32.257H33.134A10.18,10.18,0,0,1,23,103.833V92.71a10.053,10.053,0,0,1,5.314-8.9c.124-15.819,4.7-28.055,13.718-36.582,8.9-8.4,21.628-12.73,37.942-12.73s29.043,4.326,37.942,12.73c9.022,8.528,13.595,20.763,13.718,36.582a10.186,10.186,0,0,1,5.191,8.9Zm-21.381,3.337a70.894,70.894,0,0,0-.371-7.415c-4.449-4.078-12.606-7.168-22.864-8.4a14.561,14.561,0,0,1,3.213,6.179c-6.3-4.944-18.662-3.831-27.931-14.831-.494-.618-.989-1.236-1.359-1.73h0c-1.607-2.225-2.225-3.584-2.225-2.1-.247,12.73-9.269,22.617-19.28,24.1C44.5,93.2,44.5,94.688,44.5,96.171a45.87,45.87,0,0,0,2.348,14.707c5.685,6.8,14.954,8.651,23.111,9.269,1.483-2.472,4.944-4.078,8.9-4.078,5.438,0,9.764,3.09,9.764,6.921s-4.449,6.921-9.764,6.921c-4.2,0-7.663-1.854-9.146-4.449-5.809-.371-12.112-1.359-17.673-3.955,7.91,11.741,20.269,17.92,27.931,17.92,11.988-.247,35.47-15.449,35.47-43.38Zm10.011-13.471c-.618-27.56-16.314-42.02-45.481-42.02S35.112,55.139,34.494,82.576h3.831c1.359-9.269,4.449-16.932,9.022-22.74,7.292-9.393,18.291-14.089,32.628-14.089s25.336,4.82,32.628,14.089c4.573,5.809,7.539,13.471,9.022,22.74Zm0,0" transform="translate(-23 -34.5)"/>
    </g>
  </g>
</svg>
