<svg xmlns="http://www.w3.org/2000/svg" viewBox="2624 1031 170.8 197.001">
  <defs>
    <style>
      .cls-1 {
        fill: #0f3763;
        fill-rule: evenodd;
      }

      .cls-2 {
        fill: #fff;
      }
    </style>
  </defs>
  <g id="Group_122" data-name="Group 122" transform="translate(2624 1031)">
    <path id="Path_102" data-name="Path 102" class="cls-1" d="M0,147.813v-98.5L85.4,0l85.4,49.312v98.5L85.4,197Z"/>
    <g id="Group_121" data-name="Group 121" transform="translate(23.976 36.953)">
      <path id="Path_103" data-name="Path 103" class="cls-2" d="M142,84.65a4.114,4.114,0,0,0-3.955-3.09,13.547,13.547,0,0,1-9.269-23.606,3.444,3.444,0,0,0,.371-4.7,61.571,61.571,0,0,0-9.764-9.887,3.454,3.454,0,0,0-4.7.371A14.19,14.19,0,0,1,99.362,47.2a13.5,13.5,0,0,1-8.28-13.348,3.4,3.4,0,0,0-2.966-3.584,64.782,64.782,0,0,0-13.842,0,3.576,3.576,0,0,0-3.09,3.46,13.62,13.62,0,0,1-8.4,13.1,13.941,13.941,0,0,1-15.2-3.46,3.444,3.444,0,0,0-4.7-.371,58.271,58.271,0,0,0-10.011,9.887,3.454,3.454,0,0,0,.371,4.7A13.51,13.51,0,0,1,36.7,72.909c-2.1,5.067-7.415,8.28-13.348,8.28a3.324,3.324,0,0,0-3.584,2.966,65.94,65.94,0,0,0,0,13.966c.247,1.73,2.225,3.09,4.078,3.09a13.494,13.494,0,0,1,12.606,8.4,13.775,13.775,0,0,1-3.46,15.2,3.3,3.3,0,0,0-.371,4.573,67.094,67.094,0,0,0,9.764,9.887,3.454,3.454,0,0,0,4.7-.371,14.19,14.19,0,0,1,15.325-3.46,13.5,13.5,0,0,1,8.28,13.348,3.4,3.4,0,0,0,2.966,3.584,67.248,67.248,0,0,0,7.045.371,64.373,64.373,0,0,0,6.8-.371,3.605,3.605,0,0,0,3.09-3.584,13.62,13.62,0,0,1,8.4-13.1,14.165,14.165,0,0,1,15.2,3.46,3.444,3.444,0,0,0,4.7.371,58.271,58.271,0,0,0,10.011-9.887,3.454,3.454,0,0,0-.371-4.7,13.51,13.51,0,0,1-3.461-15.325,13.947,13.947,0,0,1,12.606-8.4h.742A3.484,3.484,0,0,0,142,98.245a62.449,62.449,0,0,0,0-13.595ZM80.824,126.917a35.47,35.47,0,1,1,35.47-35.47,34.906,34.906,0,0,1-5.067,18.168L95.778,94.166a21.9,21.9,0,0,0,1.73-8.528,21.109,21.109,0,0,0-6.427-15.325,21.646,21.646,0,0,0-21.01-5.685,2.448,2.448,0,0,0-1.73,1.73,2.177,2.177,0,0,0,.742,2.348s7.663,7.786,10.258,10.258a1.837,1.837,0,0,1,.247,1.112V80.2a56.05,56.05,0,0,1-1.112,7.539l-.124.124-.124.124a52,52,0,0,1-7.663,1.236h-.247a2,2,0,0,1-1.236-.494L59.072,78.718a2.516,2.516,0,0,0-1.73-.742,2.488,2.488,0,0,0-2.348,1.854,22.182,22.182,0,0,0,5.562,21.134A21.609,21.609,0,0,0,75.88,107.39a22.367,22.367,0,0,0,8.528-1.73l15.7,15.7a35.842,35.842,0,0,1-19.28,5.562Zm0,0" transform="translate(-19.4 -29.9)"/>
    </g>
  </g>
</svg>
