<svg xmlns="http://www.w3.org/2000/svg" viewBox="2020 1031 170.8 197.001">
  <defs>
    <style>
      .cls-1 {
        fill: #0f3763;
      }

      .cls-1, .cls-2 {
        fill-rule: evenodd;
      }

      .cls-2 {
        fill: #fff;
      }
    </style>
  </defs>
  <g id="Group_120" data-name="Group 120" transform="translate(2020 1031)">
    <path id="Path_100" data-name="Path 100" class="cls-1" d="M0,147.812v-98.5L85.4,0l85.4,49.312v98.5L85.4,197Z"/>
    <path id="Path_101" data-name="Path 101" class="cls-2" d="M46.137,71.056H75.3V82.3h6.179V71.056h29.167V87.987h4.573V62.034h2.6v53.638h-2.6V89.841h-4.573v16.932H81.484V96.886H75.3v9.887H46.137V89.841H41.688v25.83H38.969V62.034h2.719v25.83h4.449ZM29.7,40.9H51.081V62.034H29.7Zm38.189,0H89.023V62.034h-2.1l-8.528-9.516-8.4,9.516h-2.1Zm37.942,0h21.134V62.034H105.831ZM29.7,115.671H51.081v21.134H29.7Zm38.189,0h.865l9.764,11,9.64-11h.989v21.134H67.889Zm37.942,0h21.134v21.134H105.831ZM79.506,98.987V117.4h4.449l-5.438,6.3-5.562-6.3h4.573V98.987Zm0-18.786V61.787h4.449l-5.438-6.3-5.562,6.3h4.573V80.2Z" transform="translate(7.006 9.648)"/>
  </g>
</svg>
