<svg xmlns="http://www.w3.org/2000/svg" viewBox="2088 1506 136.114 100">
  <defs>
    <style>
      .cls-1 {
        fill: #0f3763;
      }
    </style>
  </defs>
  <g id="Group_140" data-name="Group 140" transform="translate(2088 1506)">
    <path id="Path_135" data-name="Path 135" class="cls-1" d="M136.114,28.95,68.6,0,0,28.95,68.6,53.68Zm0,0"/>
    <path id="Path_136" data-name="Path 136" class="cls-1" d="M109.262,65.4V44.1L68.536,59.213,28.3,44.1V65.2c21.394.491,40.432,14.426,40.432,14.426,22.277-15.505,40.53-14.23,40.53-14.23Zm0,0" transform="translate(-0.528 -0.822)"/>
    <path id="Path_137" data-name="Path 137" class="cls-1" d="M114.5,74.806v25.908h6.673V74.806a3.434,3.434,0,0,0-1.374-2.748,3.738,3.738,0,0,0,1.374-3.042,3.8,3.8,0,0,0-1.865-3.337h0V38.3l-2.944.981v26.2l.1.1a3.686,3.686,0,0,0-1.963,3.337,4.049,4.049,0,0,0,1.374,3.042,3.631,3.631,0,0,0-1.374,2.846Zm.1,6.575" transform="translate(-2.135 -0.714)"/>
  </g>
</svg>
