<svg xmlns="http://www.w3.org/2000/svg" viewBox="2318 1506 86.532 100">
  <defs>
    <style>
      .cls-1 {
        fill: #0f3763;
      }
    </style>
  </defs>
  <g id="Group_137" data-name="Group 137" transform="translate(2318.126 1506)">
    <path id="Path_110" data-name="Path 110" class="cls-1" d="M61.941,80.683c7.331-3.03,14.564-6.06,21.9-9.09,2.15-.684,3.714-2.15,3.714-4.594a6.888,6.888,0,0,0-3.226-6.256,5.036,5.036,0,0,0-4.985-.1c-4.5,1.857-8.895,3.714-13.391,5.474a5.652,5.652,0,0,1-1.368.489,6.787,6.787,0,0,1-.489-1.271c-1.857-4.5-1.662-4.008-3.519-8.406-.1-.1-.684-1.662-1.368-3.03a18.311,18.311,0,0,1-5.669,8.211L50.7,64.359c1.955,4.692,3.91,9.481,5.865,13.978,1.075,2.835,2.541,3.519,5.376,2.346Zm-.684.586" transform="translate(-1.145 -1.214)"/>
    <path id="Path_111" data-name="Path 111" class="cls-1" d="M10.847,56.4H5.08a3.61,3.61,0,0,0-3.519,2.541L0,66.077A6.443,6.443,0,0,0,6.253,73.8H9.381a6.346,6.346,0,0,0,6.256-7.722l-1.368-7.136A3.408,3.408,0,0,0,10.847,56.4Zm0,0" transform="translate(0 -1.271)"/>
    <path id="Path_112" data-name="Path 112" class="cls-1" d="M34.536,69.983c3.617-2.053,7.331-4.2,11.045-6.354l4.5-3.714c.684-.489,7.82-6.647,3.128-14.173L42.161,27.854c-.2-.391-.489-.782-.782-1.271a3.667,3.667,0,0,1,.977-.1c4.4,0,8.8,0,13.2-.1a1.92,1.92,0,0,1,1.662.88c1.564,2.541,3.128,4.985,4.692,7.527s4.3,3.226,6.549,1.857c2.639-1.271,3.226-4.105,1.662-6.647-2.15-3.617-4.4-7.136-6.549-10.752A4.106,4.106,0,0,0,60.048,17.2c-7.136,0-14.467,0-21.7.2a8.056,8.056,0,0,0-3.91,1.271c-4.008,2.444-7.918,5.278-11.827,7.918a6.62,6.62,0,0,0-3.226,5.963V43.1a6.386,6.386,0,0,0,0,1.368H6.287c-2.932,0-4.887,1.759-4.887,4.5a4.415,4.415,0,0,0,4.79,4.594H25.348c1.955,0,3.03-1.075,3.03-3.128v-8.9a2.735,2.735,0,0,1,.1-.586c3.03,4.692,6.06,9.188,8.993,13.782a6.575,6.575,0,0,1-1.075.684c-3.714,2.346-7.624,4.79-11.436,7.038a5.243,5.243,0,0,0-2.639,4.79c0,9.188.1,18.376,0,27.467,0,3.421,2.15,5.572,5.669,5.669,3.323.1,5.474-1.368,6.158-4.105a10.053,10.053,0,0,0,.1-1.662c0-7.722-.1-15.542-.1-23.264a.948.948,0,0,1,.391-1.368Zm0,0" transform="translate(-0.034 -0.387)"/>
    <path id="Path_113" data-name="Path 113" class="cls-1" d="M10,10.85A10.913,10.913,0,0,0,20.85,21.5,10.578,10.578,0,0,0,31.5,10.752a10.752,10.752,0,1,0-21.5.1Zm0,0" transform="translate(-0.228)"/>
  </g>
</svg>
