<svg xmlns="http://www.w3.org/2000/svg" viewBox="2518 1506 71.99 100">
  <defs>
    <style>
      .cls-1 {
        fill: #0f3763;
      }
    </style>
  </defs>
  <g id="Group_138" data-name="Group 138" transform="translate(2518 1505.886)">
    <g id="Group_127" data-name="Group 127" transform="translate(12.851 0.114)">
      <path id="Path_114" data-name="Path 114" class="cls-1" d="M14.461,19.151a1.639,1.639,0,0,0,.183,2.381,1.6,1.6,0,0,0,1.1.366,1.808,1.808,0,0,0,1.282-.55c.275-.275,6.228-7.327,1.74-13.005-2.473-3.206-.641-5.037-.275-5.312A1.631,1.631,0,1,0,16.476.468c-1.74,1.374-4.03,5.22-.275,9.983,2.748,3.48-1.649,8.7-1.74,8.7Zm0,0" transform="translate(-14.032 -0.114)"/>
      <path id="Path_115" data-name="Path 115" class="cls-1" d="M30.361,19.151a1.639,1.639,0,0,0,.183,2.381,1.6,1.6,0,0,0,1.1.366,1.808,1.808,0,0,0,1.282-.55c.275-.275,6.228-7.327,1.74-13.005-2.473-3.206-.641-5.037-.275-5.312A1.631,1.631,0,1,0,32.376.468c-1.74,1.374-4.03,5.22-.275,9.983,2.656,3.48-1.74,8.7-1.74,8.7Zm0,0" transform="translate(-15.37 -0.114)"/>
      <path id="Path_116" data-name="Path 116" class="cls-1" d="M46.161,19.151a1.639,1.639,0,0,0,.183,2.381,1.6,1.6,0,0,0,1.1.366,1.808,1.808,0,0,0,1.282-.55c.275-.275,6.228-7.327,1.74-13.005-2.473-3.206-.641-5.037-.275-5.312A1.631,1.631,0,0,0,48.176.468c-1.74,1.374-4.03,5.22-.275,9.983,2.656,3.48-1.74,8.7-1.74,8.7Zm0,0" transform="translate(-16.699 -0.114)"/>
      <path id="Path_117" data-name="Path 117" class="cls-1" d="M61.961,19.151a1.639,1.639,0,0,0,.183,2.381,1.6,1.6,0,0,0,1.1.366,1.808,1.808,0,0,0,1.282-.55c.275-.275,6.228-7.327,1.74-13.005-2.473-3.206-.641-5.037-.275-5.312A1.631,1.631,0,1,0,63.976.468c-1.74,1.374-4.03,5.22-.275,9.983,2.748,3.48-1.649,8.7-1.74,8.7Zm0,0" transform="translate(-18.028 -0.114)"/>
    </g>
    <g id="Group_128" data-name="Group 128" transform="translate(0 28.127)">
      <path id="Path_118" data-name="Path 118" class="cls-1" d="M37.087,91.975A24.087,24.087,0,1,1,61.175,67.887,24.117,24.117,0,0,1,37.087,91.975m0-47.076A22.9,22.9,0,1,0,60.076,67.8,22.984,22.984,0,0,0,37.087,44.9Z" transform="translate(-1.094 -31.802)"/>
      <path id="Path_119" data-name="Path 119" class="cls-1" d="M37.55,87.4A19.05,19.05,0,1,1,56.6,68.35,19.036,19.036,0,0,1,37.55,87.4m0-37A17.859,17.859,0,1,0,55.41,68.259,17.882,17.882,0,0,0,37.55,50.4Z" transform="translate(-1.556 -32.265)"/>
      <path id="Path_120" data-name="Path 120" class="cls-1" d="M38.013,82.826A14.013,14.013,0,1,1,52.026,68.813,14.013,14.013,0,0,1,38.013,82.826m0-26.927A12.822,12.822,0,1,0,50.835,68.721,12.86,12.86,0,0,0,38.013,55.9Z" transform="translate(-2.019 -32.728)"/>
      <path id="Path_121" data-name="Path 121" class="cls-1" d="M38.526,60.8A8.426,8.426,0,1,1,30.1,69.226,8.4,8.4,0,0,1,38.526,60.8" transform="translate(-2.532 -33.232)"/>
      <path id="Path_122" data-name="Path 122" class="cls-1" d="M50.4,84.319a.7.7,0,0,1-.458-.183L25.488,53.913a.586.586,0,0,1,.916-.733L50.858,83.4a.58.58,0,0,1-.092.824c-.092.092-.183.092-.366.092" transform="translate(-2.134 -32.573)"/>
      <path id="Path_123" data-name="Path 123" class="cls-1" d="M26.246,84.577a.551.551,0,0,1-.366-.092.58.58,0,0,1-.092-.824l23.9-30.682a.586.586,0,1,1,.916.733L26.7,84.3a.5.5,0,0,1-.458.275" transform="translate(-2.159 -32.556)"/>
      <path id="Path_124" data-name="Path 124" class="cls-1" d="M66.95,30.7H5.129A5.12,5.12,0,0,0,0,35.829v61.73a5.12,5.12,0,0,0,5.129,5.129h61.73a5.12,5.12,0,0,0,5.129-5.129V35.92A5.064,5.064,0,0,0,66.95,30.7M7.235,36.1A1.832,1.832,0,1,1,5.4,37.935,1.837,1.837,0,0,1,7.235,36.1Zm0,61.272a1.832,1.832,0,1,1,1.832-1.832A1.837,1.837,0,0,1,7.235,97.375Zm28.758-1.923A28.667,28.667,0,1,1,64.66,66.785,28.71,28.71,0,0,1,35.994,95.452Zm28.85,1.923a1.832,1.832,0,1,1,1.832-1.832A1.837,1.837,0,0,1,64.844,97.375Zm0-57.608a1.832,1.832,0,1,1,1.832-1.832A1.837,1.837,0,0,1,64.844,39.767Z" transform="translate(0 -30.7)"/>
    </g>
  </g>
</svg>
