<svg xmlns="http://www.w3.org/2000/svg" viewBox="2699.537 1506 125.949 100">
  <defs>
    <style>
      .cls-1 {
        fill: #0f3763;
      }
    </style>
  </defs>
  <g id="Group_141" data-name="Group 141" transform="translate(2699.573 1505.976)">
    <g id="Group_135" data-name="Group 135" transform="translate(83.697 0.024)">
      <path id="Path_138" data-name="Path 138" class="cls-1" d="M67.219,11.724a3.009,3.009,0,1,0-1.583,5.806A22.22,22.22,0,0,1,77.511,51.968a3.12,3.12,0,0,0,.66,4.222,2.974,2.974,0,0,0,2.771.4,2.767,2.767,0,0,0,1.451-1.056A28.417,28.417,0,0,0,86.351,29.8,29.353,29.353,0,0,0,67.219,11.724Zm0,0" transform="translate(-63.424 3.682)"/>
      <path id="Path_139" data-name="Path 139" class="cls-1" d="M72.519.124A3.009,3.009,0,1,0,70.935,5.93,36.94,36.94,0,0,1,95.873,29.548,37.391,37.391,0,0,1,90.727,63.59a3.12,3.12,0,0,0,.66,4.222,2.974,2.974,0,0,0,2.771.4,2.767,2.767,0,0,0,1.451-1.056,43.437,43.437,0,0,0,6.07-39.452A44.066,44.066,0,0,0,72.519.124Zm0,0" transform="translate(-61.731 -0.024)"/>
    </g>
    <path id="Path_140" data-name="Path 140" class="cls-1" d="M83.533,35.584C75.221,16.188,61.762,1.41,54.9,4.181,43.29,8.931,61.762,31.494,5.025,54.453.143,56.432-1.176,64.48.935,69.23s8.708,9.5,13.59,7.521c.792-.4,3.958-1.319,3.958-1.319,3.563,4.75,7.125,1.979,8.445,4.882C28.512,83.877,31.942,91.661,33,94.3c1.188,2.639,3.826,5.146,5.674,4.354,1.847-.66,8.313-3.167,10.82-4.09a3.5,3.5,0,0,0,2.243-4.882c-.792-1.847-4.09-2.375-5.146-4.618-.924-2.243-4.09-9.236-5.014-11.347-1.188-3.035,1.319-5.41,5.146-5.806,25.861-2.639,30.612,13.195,39.452,9.632,7.125-2.771,5.674-22.431-2.639-41.959Zm-2.9,31.535c-1.451.66-11.611-7.389-18.209-22.563C55.957,29.383,56.748,15.66,58.2,15s11.479,9.1,17.945,24.146c6.6,15.306,5.938,27.445,4.486,27.973Zm0,0" transform="translate(0 1.221)"/>
  </g>
</svg>
