<svg xmlns="http://www.w3.org/2000/svg" viewBox="2925 1506 74.844 100">
  <defs>
    <style>
      .cls-1 {
        fill: #0f3763;
      }
    </style>
  </defs>
  <g id="Group_139" data-name="Group 139" transform="translate(2924.9 1506.114)">
    <path id="Path_134" data-name="Path 134" class="cls-1" d="M25.01,82.473v-.807a18.668,18.668,0,0,1,1.269-6.573c1.153,2.537,3.344,4.959,6.919,4.959a2.067,2.067,0,0,0,2.076-2.076,44.3,44.3,0,0,1,.807-9.456,19.165,19.165,0,0,1,4.267-7.957A28.469,28.469,0,0,0,44.614,68.4c2.422,3.46,4.844,6.919,5.3,13.031v1.153c0,7.381-5.651,13.262-12.455,13.262s-12.455-6-12.455-13.377Zm49.7-23.987C73.56,43.609,66.641,34.268,60.529,25.965c-5.651-7.611-10.61-14.185-10.61-23.987A2.054,2.054,0,0,0,48.766.133a2.141,2.141,0,0,0-2.191.115C37.349,6.821,29.738,17.892,27.085,28.5c-1.845,7.381-2.076,15.684-2.191,21.1C16.36,47.761,14.515,35.075,14.515,34.96a1.844,1.844,0,0,0-1.038-1.5,1.77,1.77,0,0,0-1.845,0C11.171,33.691.677,39,.1,60.331v2.076a37.553,37.553,0,0,0,37.48,37.48h.115A37.331,37.331,0,0,0,74.944,62.522c0-1.038-.231-4.036-.231-4.036Z"/>
  </g>
</svg>
