<svg xmlns="http://www.w3.org/2000/svg" viewBox="2779 2989.768 167.627 193.464">
  <defs>
    <style>
      .cls-1 {
        fill: none;
        stroke: #fff;
        stroke-miterlimit: 10;
        stroke-width: 3px;
        fill-rule: evenodd;
      }

      .cls-2 {
        fill: #fff;
      }
    </style>
  </defs>
  <g id="Group_175" data-name="Group 175" transform="translate(2035 43)">
    <path id="Path_153" data-name="Path 153" class="cls-1" d="M1.5,144.17V49.23L83.813,1.7l82.313,47.53v94.94L83.813,191.7Z" transform="translate(744 2946.8)"/>
    <g id="Group_162" data-name="Group 162" transform="translate(781 2999)">
      <path id="Path_159" data-name="Path 159" class="cls-2" d="M38.628,49.48A4.679,4.679,0,1,1,33.949,44.8a4.674,4.674,0,0,1,4.679,4.679ZM57.743,44.8a4.679,4.679,0,1,0,4.679,4.679A4.674,4.674,0,0,0,57.743,44.8Zm33.949,2.091v8.96a8.2,8.2,0,0,1-8.164,8.164H77.655C71.781,80.144,56.847,90,45.8,90S19.912,80.144,14.038,63.916H8.164A8.2,8.2,0,0,1,0,55.752v-8.96a8.1,8.1,0,0,1,4.281-7.168c.1-12.743,3.783-22.6,11.051-29.469C22.4,3.485,32.754,0,45.8,0s23.4,3.485,30.564,10.254c7.268,6.869,10.951,16.726,11.051,29.469a8.3,8.3,0,0,1,4.281,7.168ZM74.469,49.48a57.109,57.109,0,0,0-.3-5.973c-3.584-3.285-10.155-5.774-18.418-6.67a11.729,11.729,0,0,1,2.588,4.978c-5.077-3.982-15.033-3.086-22.5-11.947-.4-.5-.8-1-1.1-1.394h0c-1.294-1.792-1.792-2.887-1.792-1.692C32.754,37.035,25.487,45,17.423,46.195c-.1,1.1-.1,2.29-.1,3.485a36.951,36.951,0,0,0,1.892,11.847C23.794,67,31.261,68.5,37.832,68.993,39.027,67,41.814,65.708,45,65.708c4.381,0,7.865,2.489,7.865,5.575S49.381,76.659,45,76.659c-3.385,0-6.173-1.493-7.367-3.584A39.916,39.916,0,0,1,23.4,69.889c6.372,9.458,16.327,14.436,22.5,14.436,9.657,0,28.573-12.345,28.573-34.845Zm8.064-10.752c-.5-22.2-13.142-33.85-36.637-33.85S9.657,16.626,9.159,38.728h3.086c1.1-7.467,3.584-13.639,7.268-18.319C25.387,12.843,34.248,9.06,45.8,9.06s20.509,3.783,26.283,11.35c3.684,4.679,6.073,10.852,7.268,18.319Zm0,0"/>
    </g>
  </g>
</svg>
