<svg xmlns="http://www.w3.org/2000/svg" viewBox="2168.5 2990.268 167.627 193.464">
  <defs>
    <style>
      .cls-1 {
        fill: none;
        stroke: #fff;
        stroke-miterlimit: 10;
        stroke-width: 3px;
        fill-rule: evenodd;
      }

      .cls-2 {
        fill: #fff;
      }
    </style>
  </defs>
  <g id="Group_172" data-name="Group 172" transform="translate(2034 43)">
    <g id="Group_152" data-name="Group 152" transform="translate(134.5 2947.3)">
      <path id="Path_141" data-name="Path 141" class="cls-1" d="M1.5,144.17V49.23L83.813,1.7l82.313,47.53v94.94L83.813,191.7Z" transform="translate(0 0)"/>
    </g>
    <g id="Group_158" data-name="Group 158" transform="translate(158 2998.996)">
      <g id="Group_157" data-name="Group 157" transform="translate(0 0.004)">
        <path id="Path_156" data-name="Path 156" class="cls-2" d="M118.8,41.081,37.1.35a3.251,3.251,0,0,0-4.331,1.4l-17.439,35a3.009,3.009,0,0,0-.117,2.458,2.9,2.9,0,0,0,1.639,1.873L41.2,53.253l-2.107,4.331a3.251,3.251,0,0,0,1.4,4.331l.819.351L37.1,69.756H12.289A13.837,13.837,0,0,0,0,62.265V90a13.932,13.932,0,0,0,12.172-7.14H40.848a6.4,6.4,0,0,0,5.618-3.277l6.32-11.353,1.053.585a3.251,3.251,0,0,0,4.331-1.4l2.107-4.331,18.259,9.129a3.281,3.281,0,0,0,3.277-.234l5.033-3.394,9.012,4.448a3.116,3.116,0,0,0,1.4.351,3.241,3.241,0,0,0,1.053-.117,2.9,2.9,0,0,0,1.873-1.639l9.129-18.376,9.48-6.32a3.144,3.144,0,0,0,1.4-2.926,2.529,2.529,0,0,0-1.4-2.926Zm0,0" transform="translate(0 -0.004)"/>
      </g>
    </g>
  </g>
</svg>
