<svg xmlns="http://www.w3.org/2000/svg" viewBox="2371.5 2990.268 167.627 193.464">
  <defs>
    <style>
      .cls-1 {
        fill: none;
        stroke: #fff;
        stroke-miterlimit: 10;
        stroke-width: 3px;
        fill-rule: evenodd;
      }

      .cls-2 {
        fill: #fff;
      }
    </style>
  </defs>
  <g id="Group_171" data-name="Group 171" transform="translate(2034 43)">
    <g id="Group_173" data-name="Group 173">
      <g id="Group_154" data-name="Group 154" transform="translate(337.5 2947.3)">
        <path id="Path_141" data-name="Path 141" class="cls-1" d="M1.5,144.17V49.23L83.813,1.7l82.313,47.53v94.94L83.813,191.7Z" transform="translate(0 0)"/>
      </g>
      <g id="Group_159" data-name="Group 159" transform="translate(534.971 3098)">
        <path id="Path_157" data-name="Path 157" class="cls-2" d="M.23,53.344a39.947,39.947,0,0,1,14.8-35.249,6.046,6.046,0,0,1,9.87,4.582,6.134,6.134,0,0,1-2.35,4.7,28.48,28.48,0,1,0,35.954-.117,6.134,6.134,0,0,1-2.35-4.7,5.918,5.918,0,0,1,9.635-4.7A40.488,40.488,0,1,1,.23,53.344ZM40.532,0a6.018,6.018,0,0,0-5.992,5.992V33.487a5.992,5.992,0,1,0,11.985,0V5.992A6.018,6.018,0,0,0,40.532,0Zm0,0" transform="translate(-154 -99)"/>
      </g>
    </g>
  </g>
</svg>
